<?xml version="1.0" encoding="UTF-8" standalone="no"?>

<svg
   width="192"
   height="192"
   viewBox="0 0 50.799999 50.8"
   version="1.1"
   id="svg5"
   xml:space="preserve"
   xmlns="http://www.w3.org/2000/svg"><defs
     id="defs2" /><g
     id="layer2"
     style="stroke-width:1.00012;stroke-dasharray:none"><g
       id="g7426"
       transform="matrix(0.26706103,0,0,0.26706103,-90.620776,16.652553)">
	<circle
   cx="424.10049"
   cy="20.316061"
   r="6.2703724"
   id="circle7418"
   style="fill:#ffffff;fill-opacity:1;stroke-width:0.443316" />
	<path
   d="m 434.40897,43.518121 c -3.46231,0 -6.26992,2.807616 -6.26992,6.270815 0,3.46453 2.80761,6.272146 6.26992,6.272146 3.46365,0 6.27126,-2.807616 6.27126,-6.272146 0,-3.463199 -2.80761,-6.270815 -6.27126,-6.270815 z"
   id="path7420"
   style="fill:#ffffff;fill-opacity:1;stroke-width:0.443316" />
	<circle
   cx="443.85352"
   cy="28.87233"
   r="6.2703724"
   id="circle7422"
   style="fill:#ffffff;fill-opacity:1;stroke-width:0.443316" />
	<path
   d="m 471.21339,-5.3274847 c -11.76681,-4.8749863 -24.16261,-7.3466113 -36.84298,-7.3466113 -12.62984,0 -24.99993,2.470738 -36.76629,7.3430648 -0.81472,0.3377655 -1.46189,0.9853696 -1.79965,1.8000837 -0.33732,0.8147142 -0.33732,1.7304918 4.5e-4,2.54520597 L 401.1205,11.83869 c 4.4e-4,0.0018 0.003,0.0035 0.003,0.0053 l 30.21268,72.94926 c 0.51773,1.249107 1.73625,2.050084 3.07003,2.050084 0.0966,0 0.1937,-0.0044 0.29077,-0.01287 1.2633,-0.10993 2.33643,-0.925528 2.79742,-2.075347 l 30.20529,-72.912008 c 0.001,-0.0018 0.002,-0.0026 0.003,-0.0044 l 5.31027,-12.82265823 c 0.70213,-1.69680357 -0.10328,-3.64138997 -1.7992,-4.34351607 z m -36.84298,-0.6976928 c 10.69722,0 21.17813,1.8900647 31.20426,5.62409717 l -2.76861,6.68437853 c -9.13917,-3.367899 -18.68657,-5.0731246 -28.42989,-5.0731246 -9.70565,0 -19.22955,1.7056689 -28.36073,5.0722375 l -2.77216,-6.68703793 c 10.02125,-3.73137187 20.47645,-5.62055067 31.12713,-5.62055067 z m 0.0377,80.8579235 -25.84434,-62.3992 c 8.31824,-3.0345654 16.98443,-4.574455 25.81198,-4.574455 8.86523,0 17.55536,1.5412193 25.88158,4.576228 z"
   id="path7424"
   style="fill:#ffffff;fill-opacity:1;stroke-width:0.443316" />
</g></g></svg>
